<svg xmlns="http://www.w3.org/2000/svg" viewBox="0 0 44 44" fill="none">
  <rect width="44" height="44" rx="10" fill="#0f172a"/>
  <rect x="7"    y="9"    width="2.5" height="26"  rx="1.25" fill="#10b981"/>
  <rect x="7"    y="9"    width="8.5" height="2.5" rx="1.25" fill="#10b981"/>
  <rect x="7"    y="32.5" width="8.5" height="2.5" rx="1.25" fill="#10b981"/>
  <rect x="34.5" y="9"    width="2.5" height="26"  rx="1.25" fill="#10b981"/>
  <rect x="28"   y="9"    width="8.5" height="2.5" rx="1.25" fill="#10b981"/>
  <rect x="28"   y="32.5" width="8.5" height="2.5" rx="1.25" fill="#10b981"/>
  <rect x="14"   y="12"   width="1.8" height="9"   rx="0.9"  fill="white"/>
  <rect x="17"   y="12"   width="1.8" height="9"   rx="0.9"  fill="white"/>
  <rect x="20"   y="12"   width="1.8" height="9"   rx="0.9"  fill="white"/>
  <rect x="14.5" y="20.5" width="6.8" height="1.5" rx="0.75" fill="white"/>
  <rect x="16.5" y="21.5" width="2.8" height="10"  rx="1.4"  fill="white"/>
  <ellipse cx="28" cy="15.5" rx="2.8" ry="3.5" fill="white"/>
  <rect x="26.8" y="18.5" width="2.4" height="13"  rx="1.2"  fill="white"/>
</svg>
